<svg width="14" height="18" viewBox="0 0 14 18" fill="none" xmlns="http://www.w3.org/2000/svg">
<path d="M7 3.5V0L2.625 4.375L7 8.75V5.25C8.39239 5.25 9.72775 5.80312 10.7123 6.78769C11.6969 7.77226 12.25 9.10761 12.25 10.5C12.25 11.8924 11.6969 13.2277 10.7123 14.2123C9.72775 15.1969 8.39239 15.75 7 15.75C5.60761 15.75 4.27226 15.1969 3.28769 14.2123C2.30312 13.2277 1.75 11.8924 1.75 10.5H0C0 12.3565 0.737498 14.137 2.05025 15.4497C3.36301 16.7625 5.14348 17.5 7 17.5C8.85652 17.5 10.637 16.7625 11.9497 15.4497C13.2625 14.137 14 12.3565 14 10.5C14 8.64348 13.2625 6.86301 11.9497 5.55025C10.637 4.2375 8.85652 3.5 7 3.5Z" fill="#F95A2C"/>
</svg>
